{"title":"I Am Number Four (2011)(DivX)(PPVRip)(DD 2.0)(Nl subs) TBS","uid":6310210,"size":1565532560,"categoryP":"video","categoryS":"movies","magnet":"?xt=urn:btih:cbb262b022594aae0906ae180b0ae33c0e7b556e&amp;dn=I+Am+Number+Four+%282011%29%28DivX%29%28PPVRip%29%28DD+2.0%29%28Nl+subs%29+TBS&amp;tr=udp%3A%2F%2Ftracker.openbittorrent.com%3A80&amp;tr=udp%3A%2F%2Fopen.demonii.com%3A1337&amp;tr=udp%3A%2F%2Ftracker.coppersurfer.tk%3A6969&amp;tr=udp%3A%2F%2Fexodus.desync.com%3A6969","seeders":1,"leechers":1,"uploader":"Vlinder.","files":-1,"time":1302510742,"description":"I Am Number Four (2011)(DivX)(PPVRip)(DD 2.0)(Nl subs) TBS\n\n********Momenteel te zien in 47 bioscopen********\n********Now in the Cinema******** \n\nVerenigde Staten\nActie / Science-Fiction\n109 minuten\n\ngeregisseerd door D.J. Caruso\nmet Alex Pettyfer, Timothy Olyphant en Dianna Agron\n\nNegen buitenaardse baby's met menselijke kenmerken vluchten van hun thuis planeet Lorien om zich te verschuilen op Aarde. Ze worden gevolgd door de Mogadorians die hun eigen planeet vernietigd hebben om de baby's op te sporen. De baby's hebben allemaal een eigen lijfwacht en ze zullen superkrachten krijgen wanneer ze ouder worden. Ze hebben allemaal een nummer van ÃƒÂ©ÃƒÂ©n tot negen en kunnen ook alleen in die volgorde vermoord worden. Number Four (Alex Pettyfer), ook John Smith genaamd, verhuist naar Paradise, Ohio en wordt vrienden met de vriendelijke fotograaf Sarah. Na zijn hele leven op de vlucht te zijn geweest is Number Four verliefd geworden en heeft hij iets om voor te vechten.\n\nStoryline:\n\nJohn is an extraordinary teen, masking his true identity and passing as a typical high school student to elude a deadly enemy seeking to destroy him. Three like him have already been killed ... he is Number Four. \n\n\nInfo:\n  \nSource.............: I Am Number Four 2011 PPVRIP IFLIX\nAudio..............: English DD 2.0\nSubtitles.NL.......: Vertaald door Heksje &amp; Suurtje Mooie Team!!!\nControle...........: Suurtje\nBewerking+Resync...: Suurtje, Klasse werk m8 thnx\nAVI.......2 CDS....: Zelda\nCover..............: Yes\n \nFormat                           : AVI\nFormat/Info                      : Audio Video Interleave\nFile size                        : 817 MiB\nDuration                         : 55mn 11s\nOverall bit rate                 : 2 069 Kbps\nWriting library                  : VirtualDub-MPEG2 build 18294/release\n\nVideo\nID                               : 0\nFormat                           : MPEG-4 Visual\nFormat profile                   : Advanced Simple@L5\nFormat settings, BVOP            : Yes\nFormat settings, QPel            : No\nFormat settings, GMC             : No warppoints\nFormat settings, Matrix          : Default (H.263)\nMuxing mode                      : Packed bitstream\nCodec ID                         : DX50\nCodec ID/Hint                    : DivX 5\nDuration                         : 55mn 11s\nBit rate                         : 1 865 Kbps\nWidth                            : 720 pixels\nHeight                           : 416 pixels\nDisplay aspect ratio             : 16:9\nFrame rate                       : 29.970 fps\nColor space                      : YUV\nChroma subsampling               : 4:2:0\nBit depth                        : 8 bits\nScan type                        : Progressive\nBits/(Pixel*Frame)               : 0.208\nStream size                      : 736 MiB (90%)\nWriting library                  : XviD 1.2.1 (UTC 2008-12-04)\n\nAudio\nID                               : 1\nFormat                           : AC-3\nFormat/Info                      : Audio Coding 3\nMode extension                   : CM (complete main)\nCodec ID                         : 2000\nDuration                         : 55mn 11s\nBit rate mode                    : Constant\nBit rate                         : 192 Kbps\nChannel(s)                       : 2 channels\nChannel positions                : Front: L R\nSampling rate                    : 48.0 KHz\nBit depth                        : 16 bits\nStream size                      : 75.8 MiB (9%)\nAlignment                        : Split accross interleaves\nInterleave, duration             : 33 ms (1.00 video frame)\nInterleave, preload duration     : 500 ms\n\n &lt;a href=&quot;\nhttp://www.imdb.com/title/tt1464540&quot; rel=&quot;nofollow&quot; target=&quot;_NEW&quot;&gt;\nhttp://www.imdb.com/title/tt1464540&lt;/a&gt; &lt;a href=&quot;\nhttp://www.moviemeter.nl/film/70479&quot; rel=&quot;nofollow&quot; target=&quot;_NEW&quot;&gt;\nhttp://www.moviemeter.nl/film/70479&lt;/a&gt;","torrent":{"xt":"urn:btih:cbb262b022594aae0906ae180b0ae33c0e7b556e","amp;dn":"I+Am+Number+Four+%282011%29%28DivX%29%28PPVRip%29%28DD+2.0%29%28Nl+subs%29+TBS","amp;tr":["udp%3A%2F%2Ftracker.openbittorrent.com%3A80","udp%3A%2F%2Fopen.demonii.com%3A1337","udp%3A%2F%2Ftracker.coppersurfer.tk%3A6969","udp%3A%2F%2Fexodus.desync.com%3A6969"],"infoHash":"cbb262b022594aae0906ae180b0ae33c0e7b556e","infoHashBuffer":{"type":"Buffer","data":[203,178,98,176,34,89,74,174,9,6,174,24,11,10,227,60,14,123,85,110]},"announce":[],"urlList":[]}}